<svg data-v-0dd9719b="" version="1.0" xmlns="http://www.w3.org/2000/svg" xmlns:xlink="http://www.w3.org/1999/xlink" width="100%" height="100%" viewBox="0 0 340.000000 250.000000" preserveAspectRatio="xMidYMid meet" color-interpolation-filters="sRGB" style="margin: auto;">
  <g data-v-0dd9719b="" fill="#333" class="icon-text-wrapper icon-svg-group iconsvg" transform="translate(92.19499969482422,95.43752479553223)">
    <g class="iconsvg-imagesvg" transform="translate(0,0)">
      <g>
        <rect fill="#333" fill-opacity="0" stroke-width="2" x="0" y="0" width="60" height="59.12495072920773" class="image-rect"></rect>
        <svg x="0" y="0" width="60" height="59.12495072920773" filtersec="colorsb4279849893" class="image-svg-svg primary" style="overflow: visible;">
          <svg xmlns="http://www.w3.org/2000/svg" viewBox="0 0 101.47999572753906 100">
            <rect x="42.96" width="13.33" height="32.59" rx="6.3" fill="#43175C"></rect>
            <rect x="57.75" y="19.96" width="32.59" height="13.33" rx="6.3" transform="rotate(-45 74.05 26.628)" fill="#43175C"></rect>
            <rect x="68.89" y="43.7" width="32.59" height="13.33" rx="6.3" fill="#43175C"></rect>
            <rect x="18.62" y="10.21" width="13.33" height="32.59" rx="6.3" transform="rotate(-45 25.297 26.502)" fill="#43175C"></rect>
            <rect x="67.51" y="59.1" width="13.33" height="32.59" rx="6.3" transform="rotate(-45 74.183 75.403)" fill="#43175C"></rect>
            <path d="M53 44.47a6.25 6.25 0 0 0-3-.77H6.3A6.32 6.32 0 0 0 0 50v.74A6.32 6.32 0 0 0 6.3 57h28L5.67 85.65a6.31 6.31 0 0 0 0 8.9l.52.53a6.31 6.31 0 0 0 8.9 0L43 67.21V93.7a6.32 6.32 0 0 0 6.3 6.3h.7a6.32 6.32 0 0 0 6.3-6.3V50a6.31 6.31 0 0 0-3.3-5.53z" fill="#FF9705"></path>
          </svg>
        </svg>
        <!---->
      </g>
    </g>
    <g transform="translate(67,7.222475051879883)">
      <g data-gra="path-name" fill-rule="" class="tp-name iconsvg-namesvg">
        <g transform="scale(1)">

            <path d="M27.82-32.56L35.62-32.56 35.62 0 27.82 0 27.82-16.25Q27.82-20.15 25.09-22.88L25.09-22.88Q22.36-25.61 18.46-25.61L18.46-25.61Q16.57-25.61 14.85-24.89 13.13-24.18 11.83-22.88L11.83-22.88Q9.1-20.15 9.1-16.25L9.1-16.25Q9.1-12.42 11.83-9.69L11.83-9.69Q13.13-8.32 14.85-7.64 16.57-6.96 18.46-6.96L18.46-6.96Q20.41-6.96 21.97-7.61L21.97-7.61 24.77-0.65Q21.78 0.84 17.81 0.84L17.81 0.84Q14.24 0.84 11.21-0.49 8.19-1.82 5.98-4.16 3.77-6.5 2.54-9.62 1.3-12.74 1.3-16.25L1.3-16.25Q1.3-19.82 2.54-22.95 3.77-26.07 5.98-28.41 8.19-30.75 11.21-32.08 14.24-33.41 17.81-33.41L17.81-33.41Q21-33.41 23.46-32.44 25.94-31.46 27.82-29.96L27.82-29.96 27.82-32.56ZM65.65-45.57L73.45-45.57 73.45 0 65.65 0 65.65-16.25Q65.65-20.21 62.92-22.88L62.92-22.88Q60.19-25.61 56.36-25.61L56.36-25.61Q52.46-25.61 49.73-22.88L49.73-22.88Q47-20.15 47-16.25L47-16.25Q47-12.42 49.73-9.69L49.73-9.69Q51.03-8.32 52.75-7.64 54.47-6.96 56.36-6.96L56.36-6.96Q58.24-6.96 59.8-7.61L59.8-7.61 62.59-0.65Q59.61 0.84 55.71 0.84L55.71 0.84Q52.13 0.84 49.11-0.49 46.09-1.82 43.88-4.16 41.67-6.5 40.43-9.62 39.2-12.74 39.2-16.25L39.2-16.25Q39.2-19.82 40.43-22.95 41.67-26.07 43.88-28.41 46.09-30.75 49.11-32.08 52.13-33.41 55.71-33.41L55.71-33.41Q58.83-33.41 61.3-32.44 63.77-31.46 65.65-29.96L65.65-29.96 65.65-45.57ZM90.67-20.15L90.67-20.15Q91.45-19.96 93.27-19.24 95.09-18.53 97.01-17.26 98.93-15.99 100.36-14.11 101.79-12.22 101.79-9.62L101.79-9.62Q101.79-7.35 101.04-5.46 100.29-3.58 98.86-2.15 97.44-0.72 95.35 0.07 93.27 0.84 90.67 0.84L90.67 0.84Q86.71 0.84 83.3-0.58 79.88-2.02 77.8-4.09L77.8-4.09 83.2-9.49Q84.89-7.48 86.81-6.89 88.72-6.31 90.02-6.31L90.02-6.31Q92.04-6.31 93.01-7.08 93.99-7.87 93.99-8.97L93.99-8.97Q93.99-9.75 93.34-10.34 92.69-10.92 91.81-11.31 90.94-11.7 90.02-11.93 89.11-12.16 88.53-12.35L88.53-12.35Q87.75-12.61 85.9-13.26 84.04-13.91 82.13-15.15 80.21-16.38 78.78-18.27 77.35-20.15 77.35-22.82L77.35-22.82Q77.35-25.55 78.29-27.53 79.23-29.51 80.79-30.81 82.35-32.11 84.37-32.73 86.38-33.34 88.53-33.34L88.53-33.34Q91.84-33.34 94.15-32.56 96.46-31.79 97.95-30.88L97.95-30.88Q99.64-29.77 100.81-28.41L100.81-28.41 95.35-22.95Q94.05-24.64 92.49-25.41 90.94-26.2 89.18-26.2L89.18-26.2Q87.81-26.2 86.48-25.55 85.15-24.89 85.15-23.46L85.15-23.46Q85.15-22.69 85.73-22.13 86.32-21.58 87.16-21.22 88.01-20.87 88.95-20.61 89.89-20.35 90.67-20.15Z" transform="translate(-1.2999999523162842, 45.56999969482422)"></path>

        </g>
      </g>
      <!---->
    </g>
  </g>
  <defs v-gra="od"></defs>
</svg>